<svg xmlns="http://www.w3.org/2000/svg" xmlns:xlink="http://www.w3.org/1999/xlink" version="1.1" id="Capa_1" x="0px" y="0px" width="100px" height="100px" viewBox="0 0 100 100" enable-background="new 0 0 100 100" xml:space="preserve">
<path fill="#fff" d="M103.247,44.719h-7.189L79.017,9.061h3.24c0.443,0,0.805-0.359,0.805-0.805V-2.09  c0-0.446-0.361-0.805-0.805-0.805H71.909c-0.443,0-0.805,0.359-0.805,0.805V8.255c0,0.446,0.361,0.805,0.805,0.805h5.145  l17.043,35.659h-5.744c-0.643,0-1.159,0.517-1.159,1.159v4.542l-31.999-2.652v-9.705c0-0.832-0.674-1.506-1.506-1.506H34.358  c-0.832,0-1.506,0.674-1.506,1.506v8.461L3.468,66.357h-6.686c-0.573,0-1.036,0.463-1.036,1.034v13.289  c0,0.571,0.462,1.034,1.036,1.034h13.288c0.571,0,1.036-0.463,1.036-1.034V67.392c0-0.571-0.464-1.034-1.036-1.034h-3.44  l26.223-17.698v8.735c0,0.831,0.674,1.506,1.506,1.506h12.491L60.826,90.27h-2.884c-0.444,0-0.806,0.363-0.806,0.805v10.35  c0,0.442,0.361,0.806,0.806,0.806h10.347c0.444,0,0.806-0.363,0.806-0.806v-10.35c0-0.441-0.361-0.805-0.806-0.805h-5.524  L48.79,58.9h4.899c0.832,0,1.506-0.675,1.506-1.506v-7.851l31.999,2.652v8.577c0,0.641,0.517,1.161,1.159,1.161h14.895  c0.641,0,1.159-0.521,1.159-1.161V45.878C104.406,45.236,103.888,44.719,103.247,44.719z"/>
</svg>