<svg xmlns="http://www.w3.org/2000/svg" xmlns:xlink="http://www.w3.org/1999/xlink" version="1.1" id="Layer_1" x="0px" y="0px" viewBox="0 0 100 100" enable-background="new 0 0 100 100" xml:space="preserve" height="100px" width="100px">
<g>
	<path fill-rule="evenodd" clip-rule="evenodd" fill="#fff" d="M92.4,68.6c-0.6-0.7-1.3-1.4-2.2-1.8c-0.9-0.5-1.8-0.7-2.9-0.7   H53.6v-1.8c0-2.1-1.8-3.8-3.9-3.8c-2.1,0-3.9,1.7-3.9,3.8V66H12.1c-1,0-2,0.3-2.9,0.7c-1.3,0.7-2.3,1.8-3,3.1   c-0.7,1.3-1.1,2.8-1.1,4.3c0,2.1,0.7,4,1.8,5.5c0.6,0.7,1.3,1.4,2.2,1.9c0.9,0.5,1.9,0.7,2.9,0.7h33.7v2.7c0,2.1,1.8,3.8,3.9,3.8   c2.2,0,3.9-1.7,3.9-3.8v-2.7h33.7c1,0,2-0.3,2.9-0.7c1.3-0.7,2.3-1.8,3-3.1c0.7-1.3,1.1-2.8,1.1-4.3C94.2,72,93.6,70.1,92.4,68.6z    M12.1,77.5c-0.2,0-0.4-0.1-0.7-0.2c-0.3-0.2-0.7-0.6-1-1.1c-0.3-0.6-0.5-1.3-0.5-2.1c0-1.1,0.4-2,0.8-2.6c0.2-0.3,0.5-0.5,0.7-0.6   c0.2-0.1,0.4-0.2,0.7-0.2h33.7v6.9H12.1z M88.7,76.7c-0.2,0.3-0.5,0.5-0.7,0.6c-0.2,0.1-0.4,0.2-0.7,0.2H53.6v-6.9h33.7   c0.2,0,0.4,0.1,0.7,0.2c0.3,0.2,0.7,0.6,1,1.1c0.3,0.6,0.5,1.3,0.5,2.1C89.5,75.2,89.2,76.2,88.7,76.7z"/>
	<path fill-rule="evenodd" clip-rule="evenodd" fill="#fff" d="M79.4,38.3V37V17c0-3.1-2.5-5.6-5.6-5.6H25.6   c-3.1,0-5.6,2.5-5.6,5.6v21.3l29.7,19.8L79.4,38.3z M24.7,17c0-0.3,0.1-0.5,0.3-0.7c0.2-0.2,0.4-0.3,0.6-0.3h48.2   c0.2,0,0.5,0.1,0.6,0.3c0.2,0.2,0.3,0.4,0.3,0.7v18.8l-25,16.7l-25-16.7V17z"/>
</g>
</svg>